# xmcd
#
# Track frame offsets:
#	150
#	3457
#	34657
#	84587
#	123681
#	142380
#	173362
#
# Disc length: 3131 seconds
#
# Revision: 1
# Processed by: cddbd v1.5.2PL0 Copyright (c) Steve Scherf et al.
# Submitted via: audiograbber 1.83.01
#
DISCID=580c3907
DTITLE=Grateful Dead - 94-04-01 The Omni, Atlanta GA
DYEAR=1900
DGENRE=
TTITLE0=Tuning
TTITLE1=Picasso Moon
TTITLE2=Deal
TTITLE3=Wang Dang Doodle
TTITLE4=Dire Wolf
TTITLE5=Black Throated Wind
TTITLE6=Bird Song
EXTD=
EXTT0=
EXTT1=
EXTT2=
EXTT3=
EXTT4=
EXTT5=
EXTT6=
PLAYORDER=
